<svg width="680" height="207" viewBox="0 0 680 207" fill="none" xmlns="http://www.w3.org/2000/svg">
<path d="M210.005 73.3061V70.7553L212.045 70.5512C214.426 70.2791 216.229 69.939 217.453 69.5309C218.745 69.0547 219.63 68.1024 220.106 66.674C220.582 65.1775 220.82 62.7627 220.82 59.4297V14.1273C220.82 10.7262 220.582 8.31143 220.106 6.88298C219.63 5.45452 218.745 4.53623 217.453 4.1281C216.229 3.65195 214.426 3.27783 212.045 3.00574L210.005 2.80168V0.250864L225.106 0.556964H264.694L264.898 7.9033L265.714 17.2903H263.266C262.789 14.2293 262.143 11.7805 261.327 9.94395C260.579 8.10736 259.49 6.74693 258.062 5.86265C256.634 4.91035 254.695 4.29815 252.246 4.02606C249.865 3.68596 246.77 3.5159 242.961 3.5159H229.493V33.4114H240.921C242.281 33.4114 243.471 33.1053 244.492 32.4931C245.512 31.8129 246.328 30.5885 246.94 28.82C247.621 27.0514 248.029 24.5006 248.165 21.1675H250.716L250.41 34.8399L250.716 49.9407H248.165C248.165 44.9751 247.553 41.472 246.328 39.4313C245.104 37.3227 243.301 36.2683 240.921 36.2683H229.493V62.0825C229.493 65.3476 230.207 67.5243 231.636 68.6126C233.064 69.6329 235.717 70.1431 239.594 70.1431H249.083C253.028 70.1431 256.089 69.701 258.266 68.8167C260.511 67.9324 262.177 66.1638 263.266 63.511C264.354 60.7901 265.102 56.8109 265.51 51.5732H268.061L267.347 63.8171L267.041 73H225.106L210.005 73.3061ZM331.057 74.1224C327.316 74.1224 324.527 72.864 322.691 70.3472C320.922 67.7623 319.766 64.5993 319.222 60.8581C318.882 58.1373 318.337 55.4164 317.589 52.6955C316.909 49.9747 315.787 47.4919 314.222 45.2472C312.726 42.9344 310.583 41.0979 307.794 39.7374C305.073 38.377 301.502 37.6968 297.081 37.6968H292.693V59.4297C292.693 62.7627 292.931 65.1775 293.407 66.674C293.884 68.1024 294.768 69.0547 296.06 69.5309C297.353 69.939 299.155 70.2791 301.468 70.5512L303.509 70.7553V73.3061L288.408 73H288.306L273.205 73.3061V70.7553L275.246 70.5512C277.626 70.2791 279.429 69.939 280.653 69.5309C281.946 69.0547 282.83 68.1024 283.306 66.674C283.782 65.1775 284.02 62.7627 284.02 59.4297V14.1273C284.02 10.7262 283.782 8.31143 283.306 6.88298C282.83 5.45452 281.946 4.53623 280.653 4.1281C279.429 3.65195 277.626 3.27783 275.246 3.00574L273.205 2.80168V0.250864L288.306 0.556964H302.59C307.216 0.556964 311.501 1.10114 315.446 2.18949C319.392 3.20981 322.555 5.01238 324.935 7.5972C327.384 10.182 328.609 13.7872 328.609 18.4126C328.609 22.4939 327.69 25.827 325.854 28.4118C324.085 30.9286 321.704 32.8672 318.711 34.2277C315.787 35.5201 312.59 36.4384 309.12 36.9825C314.154 37.3227 318.235 39.0572 321.364 42.1862C324.561 45.2472 326.602 49.7706 327.486 55.7565C328.098 59.5657 328.847 62.5587 329.731 64.7354C330.683 66.844 331.704 68.3405 332.792 69.2248C333.948 70.0411 335.105 70.4492 336.261 70.4492C337.009 70.4492 337.724 70.3131 338.404 70.0411C339.152 69.769 339.798 69.4969 340.342 69.2248L341.057 71.7756C339.968 72.3198 338.506 72.8299 336.669 73.3061C334.833 73.8503 332.962 74.1224 331.057 74.1224ZM302.794 3.20981H292.693V34.9419H301.264C307.794 34.9419 312.351 33.6155 314.936 30.9626C317.589 28.3098 318.916 24.3305 318.916 19.0248C318.916 13.9912 317.725 10.114 315.344 7.39314C312.964 4.60425 308.78 3.20981 302.794 3.20981ZM357.029 73.3061V70.7553L359.274 70.5512C362.063 70.2791 364.172 69.939 365.6 69.5309C367.097 69.0547 368.117 68.1024 368.661 66.674C369.273 65.1775 369.579 62.7627 369.579 59.4297V3.31184H355.193C352.064 3.31184 349.581 3.92404 347.745 5.14843C345.976 6.30479 344.411 8.2094 343.051 10.8622C341.759 13.5151 340.228 17.0522 338.46 21.4736L336.317 20.9635L338.868 8.41346L339.99 0.250864L369.069 0.556964H378.762L407.944 0.250864L409.066 8.41346L411.617 20.9635L409.372 21.5756C407.808 17.6304 406.345 14.2973 404.985 11.5765C403.692 8.8556 402.162 6.81495 400.393 5.45452C398.625 4.02607 396.278 3.31184 393.353 3.31184H378.252V59.4297C378.252 62.7627 378.524 65.1775 379.068 66.674C379.681 68.1024 380.735 69.0547 382.231 69.5309C383.728 69.939 385.837 70.2791 388.557 70.5512L390.802 70.7553V73.3061L374.171 73L357.029 73.3061ZM412.958 73.3061V70.7553L414.998 70.5512C417.379 70.2791 419.182 69.939 420.406 69.5309C421.698 69.0547 422.583 68.1024 423.059 66.674C423.535 65.1775 423.773 62.7627 423.773 59.4297V14.1273C423.773 10.7262 423.535 8.31143 423.059 6.88298C422.583 5.45452 421.698 4.53623 420.406 4.1281C419.182 3.65195 417.379 3.27783 414.998 3.00574L412.958 2.80168V0.250864L428.058 0.556964H467.647L467.851 7.9033L468.667 17.2903H466.219C465.742 14.2293 465.096 11.7805 464.28 9.94395C463.532 8.10736 462.443 6.74693 461.015 5.86265C459.586 4.91035 457.648 4.29815 455.199 4.02606C452.818 3.68596 449.723 3.5159 445.914 3.5159H432.446V33.4114H443.873C445.234 33.4114 446.424 33.1053 447.445 32.4931C448.465 31.8129 449.281 30.5885 449.893 28.82C450.574 27.0514 450.982 24.5006 451.118 21.1675H453.669L453.362 34.8399L453.669 49.9407H451.118C451.118 44.9751 450.506 41.472 449.281 39.4313C448.057 37.3227 446.254 36.2683 443.873 36.2683H432.446V62.0825C432.446 65.3476 433.16 67.5243 434.588 68.6126C436.017 69.6329 438.67 70.1431 442.547 70.1431H452.036C455.981 70.1431 459.042 69.701 461.219 68.8167C463.464 67.9324 465.13 66.1638 466.219 63.511C467.307 60.7901 468.055 56.8109 468.463 51.5732H471.014L470.3 63.8171L469.994 73H428.058L412.958 73.3061ZM34.0227 206.122C27.0845 206.122 21.0986 204.524 16.065 201.327C11.0994 198.13 7.25615 193.742 4.53529 188.165C1.88244 182.519 0.556023 176.057 0.556023 168.778C0.556023 163.337 1.4403 158.337 3.20887 153.78C4.97743 149.222 7.42621 145.243 10.5552 141.842C13.6842 138.441 17.2893 135.822 21.3706 133.985C25.52 132.081 29.9414 131.129 34.6349 131.129C38.7842 131.129 42.1853 131.605 44.8381 132.557C47.559 133.441 49.5996 134.223 50.9601 134.904C51.8443 135.312 52.6606 135.686 53.4088 136.026C54.1571 136.298 54.6672 136.434 54.9393 136.434C55.6876 136.434 56.2997 136.162 56.7759 135.618C57.252 135.006 57.5581 133.985 57.6942 132.557H60.245L60.0409 144.495L60.245 156.433H57.6942C56.6739 149.358 54.2251 143.883 50.3479 140.005C46.4706 136.128 41.335 134.189 34.941 134.189C30.4515 134.189 26.6763 135.108 23.6154 136.944C20.5544 138.713 18.1056 141.196 16.269 144.393C14.4324 147.522 13.072 151.195 12.1877 155.412C11.3715 159.562 10.9633 164.017 10.9633 168.778C10.9633 175.921 11.7116 182.043 13.208 187.144C14.7725 192.246 17.2893 196.191 20.7584 198.98C24.2956 201.701 29.0231 203.061 34.941 203.061C39.3624 203.061 43.2056 202.041 46.4706 200C49.7357 197.96 52.3545 195.239 54.3271 191.838C56.3678 188.437 57.5922 184.696 58.0003 180.614H60.4491L60.245 193.062L60.5511 205H58.1023L57.7962 203.878C57.5241 202.993 57.184 202.177 56.7759 201.429C56.4358 200.613 55.8236 200.204 54.9393 200.204C54.4632 200.204 53.885 200.341 53.2048 200.613C52.5926 200.885 51.8783 201.225 51.0621 201.633C49.2935 202.517 46.9808 203.504 44.1239 204.592C41.267 205.612 37.8999 206.122 34.0227 206.122ZM68.6858 205.306V202.755L70.7264 202.551C73.1072 202.279 74.9098 201.939 76.1342 201.531C77.4266 201.055 78.3109 200.102 78.787 198.674C79.2632 197.178 79.5012 194.763 79.5012 191.43V146.127C79.5012 142.726 79.2632 140.311 78.787 138.883C78.3109 137.455 77.4266 136.536 76.1342 136.128C74.9098 135.652 73.1072 135.278 70.7264 135.006L68.6858 134.802V132.251L83.7866 132.557H83.8886L98.9894 132.251V134.802L96.9488 135.006C94.636 135.278 92.8335 135.652 91.5411 136.128C90.2486 136.536 89.3644 137.455 88.8882 138.883C88.4121 140.311 88.174 142.726 88.174 146.127V165.82H127.048V146.127C127.048 142.726 126.81 140.311 126.334 138.883C125.858 137.455 124.974 136.536 123.681 136.128C122.457 135.652 120.654 135.278 118.274 135.006L116.233 134.802V132.251L131.334 132.557H131.436L146.537 132.251V134.802L144.496 135.006C142.183 135.278 140.381 135.652 139.088 136.128C137.796 136.536 136.911 137.455 136.435 138.883C135.959 140.311 135.721 142.726 135.721 146.127V191.43C135.721 194.763 135.959 197.178 136.435 198.674C136.911 200.102 137.796 201.055 139.088 201.531C140.381 201.939 142.183 202.279 144.496 202.551L146.537 202.755V205.306L131.436 205H131.334L116.233 205.306V202.755L118.274 202.551C120.654 202.279 122.457 201.939 123.681 201.531C124.974 201.055 125.858 200.102 126.334 198.674C126.81 197.178 127.048 194.763 127.048 191.43V169.085H88.174V191.43C88.174 194.763 88.4121 197.178 88.8882 198.674C89.3644 200.102 90.2486 201.055 91.5411 201.531C92.8335 201.939 94.636 202.279 96.9488 202.551L98.9894 202.755V205.306L83.8886 205H83.7866L68.6858 205.306ZM151.615 205.306V202.755L153.656 202.551C156.036 202.279 157.839 201.939 159.063 201.531C160.356 201.055 161.24 200.102 161.716 198.674C162.192 197.178 162.43 194.763 162.43 191.43V146.127C162.43 142.726 162.192 140.311 161.716 138.883C161.24 137.455 160.356 136.536 159.063 136.128C157.839 135.652 156.036 135.278 153.656 135.006L151.615 134.802V132.251L166.716 132.557H206.304L206.509 139.903L207.325 149.29H204.876C204.4 146.229 203.754 143.781 202.937 141.944C202.189 140.107 201.101 138.747 199.672 137.863C198.244 136.91 196.305 136.298 193.856 136.026C191.476 135.686 188.381 135.516 184.572 135.516H171.103V165.411H182.531C183.891 165.411 185.082 165.105 186.102 164.493C187.122 163.813 187.939 162.589 188.551 160.82C189.231 159.051 189.639 156.501 189.775 153.168H192.326L192.02 166.84L192.326 181.941H189.775C189.775 176.975 189.163 173.472 187.939 171.431C186.714 169.323 184.912 168.268 182.531 168.268H171.103V194.083C171.103 197.348 171.817 199.524 173.246 200.613C174.674 201.633 177.327 202.143 181.204 202.143H190.693C194.639 202.143 197.7 201.701 199.876 200.817C202.121 199.932 203.788 198.164 204.876 195.511C205.964 192.79 206.713 188.811 207.121 183.573H209.672L208.957 195.817L208.651 205H166.716L151.615 205.306ZM252.465 206.122C247.364 206.122 242.636 205.204 238.283 203.367C233.997 201.531 230.256 198.946 227.059 195.613C223.93 192.28 221.481 188.335 219.713 183.777C217.944 179.152 217.06 174.084 217.06 168.574C217.06 163.065 217.944 158.031 219.713 153.474C221.481 148.916 223.93 144.971 227.059 141.638C230.256 138.305 233.997 135.72 238.283 133.883C242.636 132.047 247.364 131.129 252.465 131.129C257.567 131.129 262.26 132.047 266.546 133.883C270.899 135.72 274.64 138.305 277.769 141.638C280.966 144.971 283.449 148.916 285.218 153.474C286.986 158.031 287.871 163.065 287.871 168.574C287.871 174.084 286.986 179.152 285.218 183.777C283.449 188.335 280.966 192.28 277.769 195.613C274.64 198.946 270.899 201.531 266.546 203.367C262.26 205.204 257.567 206.122 252.465 206.122ZM252.465 203.061C258.383 203.061 263.179 201.667 266.852 198.878C270.525 196.089 273.212 192.144 274.912 187.042C276.613 181.873 277.463 175.717 277.463 168.574C277.463 161.432 276.613 155.31 274.912 150.209C273.212 145.039 270.525 141.094 266.852 138.373C263.179 135.584 258.383 134.189 252.465 134.189C246.615 134.189 241.82 135.584 238.079 138.373C234.406 141.094 231.719 145.039 230.018 150.209C228.318 155.31 227.467 161.432 227.467 168.574C227.467 175.717 228.318 181.873 230.018 187.042C231.719 192.144 234.406 196.089 238.079 198.878C241.82 201.667 246.615 203.061 252.465 203.061ZM291.066 205.408V202.857L293.107 202.653C295.488 202.381 297.29 202.041 298.515 201.633C299.807 201.225 300.691 200.272 301.167 198.776C301.644 197.28 301.882 194.831 301.882 191.43V138.781C301.27 138.033 300.351 137.216 299.127 136.332C297.902 135.38 296.1 134.904 293.719 134.904H290.658V132.251L310.452 132.557C311.677 134.258 313.309 136.502 315.35 139.291C317.459 142.08 319.771 145.175 322.288 148.576C324.873 151.977 327.526 155.48 330.247 159.085C332.968 162.623 335.586 166.058 338.103 169.391C340.688 172.724 343.001 175.717 345.041 178.37C347.082 181.022 348.681 183.131 349.837 184.696V146.127C349.837 142.726 349.599 140.311 349.123 138.883C348.647 137.387 347.762 136.434 346.47 136.026C345.245 135.55 343.443 135.21 341.062 135.006L339.022 134.802V132.251L352.286 132.557L364.734 132.251V134.802L362.693 135.006C360.38 135.278 358.578 135.652 357.285 136.128C355.993 136.536 355.109 137.455 354.632 138.883C354.156 140.311 353.918 142.726 353.918 146.127V205H350.857C349.769 202.755 348.136 200 345.96 196.735C343.851 193.402 341.402 189.763 338.613 185.818C335.825 181.873 332.9 177.859 329.839 173.778C326.846 169.629 323.853 165.615 320.86 161.738C317.867 157.861 315.078 154.324 312.493 151.127C309.908 147.93 307.732 145.277 305.963 143.168V191.43C305.963 194.831 306.201 197.28 306.677 198.776C307.153 200.272 308.038 201.225 309.33 201.633C310.622 202.041 312.425 202.381 314.738 202.653L316.778 202.857V205.408L303.718 205L291.066 205.408ZM402.943 206.122C396.685 206.122 390.971 204.592 385.802 201.531C380.7 198.47 376.619 194.151 373.558 188.573C370.565 182.995 369.068 176.397 369.068 168.778C369.068 163.269 369.987 158.201 371.823 153.576C373.66 148.95 376.177 144.971 379.374 141.638C382.571 138.305 386.244 135.72 390.393 133.883C394.543 132.047 398.93 131.129 403.555 131.129C406.548 131.129 409.235 131.503 411.616 132.251C413.997 132.999 415.935 133.713 417.432 134.394C419.2 135.142 420.425 135.652 421.105 135.924C421.853 136.196 422.67 136.332 423.554 136.332C424.506 136.332 425.152 135.924 425.492 135.108C425.901 134.223 426.105 133.373 426.105 132.557H428.655L428.451 144.291L428.655 156.228H426.105C425.969 151.603 424.744 147.658 422.431 144.393C420.187 141.06 417.33 138.543 413.861 136.842C410.46 135.074 406.923 134.189 403.249 134.189C395.291 134.189 389.339 137.182 385.394 143.168C381.448 149.154 379.476 157.691 379.476 168.778C379.476 180.478 381.584 189.117 385.802 194.695C390.019 200.272 395.937 203.061 403.555 203.061C407.365 203.061 410.732 202.449 413.657 201.225C416.582 200 418.894 198.402 420.595 196.429C422.295 194.389 423.146 192.28 423.146 190.103V187.246C423.146 184.253 422.431 182.111 421.003 180.818C419.643 179.526 417.092 178.71 413.351 178.37L408.963 177.961V175.513L425.901 175.921L441.614 175.513V177.961L437.022 178.37C435.185 178.506 433.689 179.22 432.533 180.512C431.376 181.805 430.798 184.049 430.798 187.246V189.083C430.798 190.647 431.036 192.11 431.512 193.47C432.057 194.831 432.567 195.987 433.043 196.939L434.471 199.49L432.125 201.021C431.24 199.592 430.356 198.64 429.472 198.164C428.655 197.62 427.941 197.348 427.329 197.348C426.241 197.348 425.254 197.62 424.37 198.164C423.486 198.708 422.533 199.354 421.513 200.102C420.357 200.919 418.962 201.803 417.33 202.755C415.765 203.708 413.827 204.49 411.514 205.102C409.201 205.782 406.344 206.122 402.943 206.122ZM442.679 205.306V202.755L444.719 202.551C447.1 202.279 448.903 201.939 450.127 201.531C451.419 201.055 452.304 200.102 452.78 198.674C453.324 197.178 453.596 194.763 453.596 191.43V146.127C453.596 142.726 453.358 140.311 452.882 138.883C452.406 137.455 451.521 136.536 450.229 136.128C449.005 135.652 447.202 135.278 444.821 135.006L442.781 134.802V132.251L457.881 132.557H472.268C481.451 132.557 489.205 133.781 495.531 136.23C501.925 138.679 506.789 142.556 510.122 147.862C513.455 153.099 515.122 159.97 515.122 168.472C515.122 174.526 514.101 179.832 512.061 184.389C510.02 188.947 507.231 192.756 503.694 195.817C500.157 198.878 496.11 201.191 491.552 202.755C487.063 204.252 482.335 205 477.37 205H457.779L442.679 205.306ZM469.105 201.939H477.778C486.076 201.939 492.742 199.252 497.776 193.878C502.81 188.437 505.326 180.036 505.326 168.676C505.326 161.738 504.34 155.82 502.368 150.923C500.463 145.957 497.3 142.182 492.878 139.597C488.525 136.944 482.641 135.618 475.227 135.618H462.371V190.103C462.371 192.076 462.507 193.98 462.779 195.817C463.051 197.586 463.663 199.048 464.616 200.204C465.568 201.361 467.064 201.939 469.105 201.939ZM509.235 205.306V202.755L510.153 202.653C512.534 202.313 514.472 201.837 515.969 201.225C517.533 200.613 518.86 199.626 519.948 198.266C521.105 196.837 522.193 194.899 523.213 192.45L547.905 132.557H551.374L575.454 192.45C576.814 195.783 578.277 198.232 579.841 199.796C581.406 201.361 583.548 202.279 586.269 202.551L588.31 202.755V205.306L575.658 205L559.333 205.306V202.755L561.373 202.551C563.754 202.279 565.455 201.769 566.475 201.021C567.495 200.272 568.005 199.218 568.005 197.858C568.005 196.497 567.529 194.661 566.577 192.348L561.271 179.084H532.498L526.988 192.348C526.512 193.572 526.104 194.695 525.764 195.715C525.424 196.667 525.254 197.518 525.254 198.266C525.254 199.558 525.798 200.545 526.886 201.225C528.043 201.905 529.913 202.347 532.498 202.551L534.539 202.755V205.306L521.581 205L509.235 205.306ZM533.825 175.819H560.047L547.191 143.474L533.825 175.819ZM587.301 205.306V202.755L589.342 202.551C591.723 202.279 593.525 201.939 594.75 201.531C596.042 201.055 596.927 200.102 597.403 198.674C597.879 197.178 598.117 194.763 598.117 191.43V146.127C598.117 142.726 597.879 140.311 597.403 138.883C596.927 137.455 596.042 136.536 594.75 136.128C593.525 135.652 591.723 135.278 589.342 135.006L587.301 134.802V132.251L602.402 132.557H608.116L632.4 191.43L659.234 132.557H665.356L679.641 132.251V134.802L677.6 135.006C675.287 135.278 673.485 135.652 672.192 136.128C670.9 136.536 670.016 137.455 669.54 138.883C669.063 140.311 668.825 142.726 668.825 146.127V191.43C668.825 194.763 669.063 197.178 669.54 198.674C670.016 200.17 670.9 201.123 672.192 201.531C673.485 201.939 675.287 202.279 677.6 202.551L679.641 202.755V205.306L664.54 205L649.337 205.306V202.755L651.378 202.551C653.759 202.279 655.561 201.939 656.786 201.531C658.078 201.123 658.962 200.17 659.438 198.674C659.915 197.178 660.153 194.763 660.153 191.43V138.985L629.951 205H628.012L601.688 140.005V194.287C601.688 196.463 601.96 198.096 602.504 199.184C603.048 200.272 603.933 201.055 605.157 201.531C606.45 201.939 608.218 202.279 610.463 202.551L612.503 202.755V205.306L599.545 205L587.301 205.306Z" fill="#F9CE5C"/>
</svg>
